<svg width="257" height="50" viewBox="0 0 257 50" fill="none" xmlns="http://www.w3.org/2000/svg">
<path d="M71.1976 9.70288H58.3037V40.351H63.4126V28.7363H71.2584C76.793 28.7363 81.0504 25.0269 81.0504 19.25C80.9896 13.4123 76.9146 9.70288 71.1976 9.70288ZM70.711 24.1756H66.2397L63.4126 28.7408V24.1756V14.3244H70.711C73.9344 14.3244 75.9415 16.2095 75.9415 19.25C75.8807 22.2905 73.8736 24.1756 70.711 24.1756Z" fill="white"/>
<path d="M89.4449 9.70312H84.7009V40.3512H89.4449V9.70312Z" fill="white"/>
<path d="M112.191 21.9267H111.765C110.427 19.9808 108.238 18.1565 104.285 18.1565C98.9932 18.1565 94.3708 22.5348 94.3708 29.5279C94.3708 36.5819 98.9932 40.9602 104.285 40.9602C108.299 40.9602 110.488 39.1359 111.765 37.1291H112.191V40.3521H116.935V18.7646H112.191V21.9267ZM105.683 36.8251C101.913 36.8251 99.1756 34.1495 99.1756 29.5279C99.1756 24.9672 101.913 22.2307 105.683 22.2307C109.454 22.2307 112.191 24.9672 112.191 29.5279C112.191 34.0887 109.454 36.8251 105.683 36.8251Z" fill="white"/>
<path d="M134.753 18.3997C130.618 18.3997 128.732 20.224 127.759 22.1091H127.333V18.7645H122.65V40.352H127.394V29.2846C127.394 24.8455 129.705 22.3523 133.294 22.3523C136.517 22.3523 138.403 24.055 138.403 27.7036V40.352H143.207V27.3995C143.207 21.8658 139.68 18.3997 134.753 18.3997Z" fill="white"/>
<path d="M158.96 36.8251C155.493 36.8251 152.939 34.3927 152.757 31.109H169.117V29.1631C169.117 22.5348 164.92 18.1565 158.656 18.1565C152.331 18.1565 147.769 22.778 147.769 29.4671C147.769 36.2778 152.209 40.9602 158.778 40.9602C164.13 40.9602 166.745 38.1629 168.144 35.9738L164.008 34.1495C163.157 35.6089 161.636 36.8251 158.96 36.8251ZM158.656 22.2916C161.88 22.2916 164.008 24.2375 164.251 27.3996H152.817C153.243 24.2983 155.372 22.2916 158.656 22.2916Z" fill="white"/>
<path d="M181.341 9.70312H176.536V16.7571H170.697V20.6489H176.536V35.9121C176.536 38.6486 178.3 40.3512 180.915 40.3512H186.997V36.3986H182.557C181.766 36.3986 181.341 35.9729 181.341 35.0608V20.5881H187.666V16.6962H181.341V9.70312Z" fill="white"/>
<path d="M207.979 21.9267H207.554C206.216 19.9808 204.026 18.1565 200.073 18.1565C194.782 18.1565 190.159 22.5348 190.159 29.5279C190.159 36.5819 194.782 40.9602 200.073 40.9602C204.087 40.9602 206.276 39.1359 207.554 37.1291H207.979V40.3521H212.723V18.7646H207.979V21.9267ZM201.411 36.8251C197.64 36.8251 194.903 34.1495 194.903 29.5279C194.903 24.9672 197.64 22.2307 201.411 22.2307C205.182 22.2307 207.919 24.9672 207.919 29.5279C207.919 34.0887 205.182 36.8251 201.411 36.8251Z" fill="white"/>
<path d="M223.492 21.7436H223.067V18.7639H218.384V40.3514H223.128V27.5814C223.128 24.2976 225.195 22.7774 228.054 22.7774H231.399V18.7031H228.905C226.108 18.7031 224.344 19.4937 223.492 21.7436Z" fill="white"/>
<path d="M251.344 18.7642L245.262 38.7098H244.776L238.633 18.7642H233.463L240.519 40.3516H244.593L241.431 49.1082H246.601L256.575 18.7642H251.344Z" fill="white"/>
<path d="M0.0876465 47.4185C0.0876465 47.9406 0.75923 48.153 1.05951 47.726L7.93036 37.9534C8.11762 37.6871 8.42282 37.5286 8.74841 37.5286H18.5083C26.5606 37.5286 31.6379 32.7898 31.6379 25.165C31.6379 17.4333 26.5606 12.6946 18.5083 12.6946H0.622209C0.326978 12.6946 0.0876465 12.9339 0.0876465 13.2291V47.4185Z" fill="url(#paint0_linear)"/>
<path d="M39.7833 35.0684C39.7833 35.5904 39.1117 35.8029 38.8114 35.3758L31.936 25.5968C31.7487 25.3304 31.4435 25.1719 31.1179 25.1719H21.3523C13.2954 25.1719 8.21533 20.4305 8.21533 12.8014C8.21533 5.0654 13.2954 0.323975 21.3523 0.323975H39.2487C39.5439 0.323975 39.7833 0.563306 39.7833 0.858537V35.0684Z" fill="url(#paint1_linear)"/>
<path d="M18.501 12.6943H8.21606C8.21606 12.73 8.21606 12.7656 8.21606 12.8013C8.21606 20.4125 13.2962 25.1718 21.353 25.1718C21.353 25.1718 30.6914 25.1718 31.0625 25.1718C31.4336 25.1718 31.638 25.3203 31.638 25.3203V25.1718C31.638 17.4358 26.5579 12.6943 18.501 12.6943Z" fill="url(#paint2_linear)"/>
<defs>
<linearGradient id="paint0_linear" x1="0.0876467" y1="49.1083" x2="39.953" y2="30.8813" gradientUnits="userSpaceOnUse">
<stop stop-color="#36F0EA"/>
<stop offset="0.732944" stop-color="#8474EA"/>
</linearGradient>
<linearGradient id="paint1_linear" x1="9.19277" y1="24.9898" x2="39.7833" y2="0.323983" gradientUnits="userSpaceOnUse">
<stop stop-color="#FFC200"/>
<stop offset="0.644395" stop-color="#FF3E7A"/>
</linearGradient>
<linearGradient id="paint2_linear" x1="8.21606" y1="25.1718" x2="31.638" y2="12.6943" gradientUnits="userSpaceOnUse">
<stop stop-color="#FFE593"/>
<stop offset="1" stop-color="#FFC200"/>
</linearGradient>
</defs>
</svg>
